<svg width="64" height="64" viewBox="0 0 64 64" fill="none" xmlns="http://www.w3.org/2000/svg">
<circle cx="32" cy="32" r="32" fill="white"/>
<g clip-path="url(#clip0_28_14)">
<path d="M38.9836 20C37.5619 20 36.1657 20.3865 34.9386 21.1199C33.7115 21.8532 32.6975 22.9069 32.001 24.1728C31.3043 22.9067 30.2901 21.8529 29.0627 21.1195C27.8354 20.3862 26.439 19.9998 25.017 20C22.8394 20.1206 20.7911 21.0938 19.2981 22.7172C17.805 24.3407 16.982 26.4894 17.0003 28.7167C17.0003 40.0757 32.001 48 32.001 48C32.001 48 47.0003 40.0757 47.0003 28.7167C47.0186 26.4894 46.1956 24.3407 44.7025 22.7172C43.2095 21.0938 41.1612 20.1206 38.9836 20Z" fill="#E63946"/>
<path d="M19.0697 28.7167C19.067 26.6623 19.7703 24.6721 21.0571 23.093C22.3438 21.514 24.1324 20.4463 26.1109 20.0761C25.7488 20.0252 25.3838 19.9998 25.0183 20C22.8405 20.1202 20.7919 21.0933 19.2986 22.7168C17.8052 24.3402 16.9821 26.4892 17.0003 28.7167C17.0003 40.0744 32.001 48 32.001 48C32.001 48 32.3896 47.7948 33.035 47.406C29.6428 45.3699 19.0697 38.2557 19.0697 28.7167Z" fill="#E63946"/>
</g>
<defs>
<clipPath id="clip0_28_14">
<rect width="30" height="28" fill="white" transform="translate(17 20)"/>
</clipPath>
</defs>
</svg>
