<svg width="64" height="64" viewBox="0 0 64 64" fill="none" xmlns="http://www.w3.org/2000/svg">
<circle cx="32" cy="32" r="32" fill="white"/>
<g clip-path="url(#clip0_26_5)">
<path d="M33.6577 20.2935C36.2065 20.6572 38.4893 21.8462 40.2275 23.5845C42.0073 25.3643 43.2134 27.7178 43.543 30.3423H47.0024V33.6577H43.4893C43.0937 36.1309 41.9219 38.3452 40.2275 40.0371C38.4917 41.7729 36.2065 42.9644 33.6577 43.3281V47H30.3423V43.3281C27.7935 42.9644 25.5107 41.7754 23.7749 40.0371C22.0806 38.3428 20.9087 36.1309 20.5132 33.6577H17V30.3423H20.457C20.7866 27.7178 21.9927 25.3643 23.7725 23.5845C25.5083 21.8486 27.791 20.6572 30.3398 20.2935V17H33.6553V20.2935H33.6577ZM32 25.645C35.4058 25.645 38.1646 28.4063 38.1646 31.8096C38.1646 35.2153 35.4033 37.9741 32 37.9741C28.5942 37.9741 25.8354 35.2129 25.8354 31.8096C25.8354 28.4063 28.5942 25.645 32 25.645ZM38.7285 25.0835C37.0073 23.3623 34.627 22.2954 32 22.2954C29.373 22.2954 26.9927 23.3599 25.2715 25.0835C23.5503 26.8047 22.4834 29.1851 22.4834 31.812C22.4834 34.439 23.5479 36.8193 25.2715 38.5405C26.9927 40.2617 29.373 41.3286 32 41.3286C34.627 41.3286 37.0073 40.2642 38.7285 38.5405C40.4497 36.8193 41.5166 34.439 41.5166 31.812C41.5142 29.1826 40.4497 26.8047 38.7285 25.0835Z" fill="#246DFF"/>
</g>
<defs>
<clipPath id="clip0_26_5">
<rect width="30" height="30" fill="white" transform="translate(17 17)"/>
</clipPath>
</defs>
</svg>
