<svg width="64" height="64" viewBox="0 0 64 64" fill="none" xmlns="http://www.w3.org/2000/svg">
<path d="M32 64C14.3552 64 0 49.6448 0 32C0 14.3552 14.3552 0 32 0C49.6448 0 64 14.3552 64 32C64 49.6448 49.6448 64 32 64Z" fill="white"/>
<path d="M41.197 44.4938L43.925 43.118C45.2226 42.4633 45.3782 40.6728 44.213 39.8043L40.0951 36.7348C39.4739 36.2717 38.6384 36.2191 37.9641 36.6003L36.768 37.2761C36.1942 37.6007 35.4915 37.6218 34.91 37.3122C31.7678 35.6396 29.3606 33.232 27.6875 30.0899C27.378 29.5083 27.3991 28.8057 27.7236 28.2319L28.3994 27.0358C28.7806 26.3615 28.7276 25.526 28.265 24.9048L25.1954 20.787C24.3269 19.6218 22.5359 19.7774 21.8817 21.075L20.5058 23.803C19.8629 25.0779 19.8274 26.5804 20.4306 27.8744C23.9705 35.464 29.5358 41.0292 37.1255 44.569C38.4195 45.1727 39.9221 45.1372 41.197 44.4938Z" fill="#3DD11F"/>
</svg>
